<mxfile host="app.diagrams.net" modified="2021-07-11T11:21:59.287Z" agent="5.0 (Macintosh; Intel Mac OS X 10_15_6) AppleWebKit/605.1.15 (KHTML, like Gecko) Version/14.0.3 Safari/605.1.15" etag="-4tRrJCpI_YjcXnh0564" version="14.6.11" type="github">
  <diagram id="6RhRDXMo98UlsTGDwwDf" name="第 1 页">
    <mxGraphModel dx="946" dy="443" grid="1" gridSize="10" guides="1" tooltips="1" connect="1" arrows="1" fold="1" page="1" pageScale="1" pageWidth="827" pageHeight="1169" math="0" shadow="0">
      <root>
        <mxCell id="0" />
        <mxCell id="1" parent="0" />
        <mxCell id="YKfZpbxEMDAa817vgpCx-1" value="" style="rounded=0;whiteSpace=wrap;html=1;" vertex="1" parent="1">
          <mxGeometry x="115" y="130" width="70" height="40" as="geometry" />
        </mxCell>
        <mxCell id="YKfZpbxEMDAa817vgpCx-2" value="&lt;span style=&quot;font-size: 16px&quot;&gt;主机B&lt;/span&gt;" style="rounded=0;whiteSpace=wrap;html=1;fillColor=#ffcccc;strokeColor=#36393d;" vertex="1" parent="1">
          <mxGeometry x="185" y="130" width="70" height="40" as="geometry" />
        </mxCell>
        <mxCell id="YKfZpbxEMDAa817vgpCx-18" style="rounded=0;orthogonalLoop=1;jettySize=auto;html=1;entryX=0.5;entryY=0;entryDx=0;entryDy=0;exitX=0.5;exitY=1;exitDx=0;exitDy=0;" edge="1" parent="1" source="YKfZpbxEMDAa817vgpCx-3" target="YKfZpbxEMDAa817vgpCx-9">
          <mxGeometry relative="1" as="geometry" />
        </mxCell>
        <mxCell id="YKfZpbxEMDAa817vgpCx-3" value="&lt;span style=&quot;font-size: 16px&quot;&gt;主机D&lt;/span&gt;" style="rounded=0;whiteSpace=wrap;html=1;fillColor=#cce5ff;strokeColor=#36393d;" vertex="1" parent="1">
          <mxGeometry x="255" y="130" width="70" height="40" as="geometry" />
        </mxCell>
        <mxCell id="YKfZpbxEMDAa817vgpCx-19" style="edgeStyle=none;rounded=0;orthogonalLoop=1;jettySize=auto;html=1;entryX=0.5;entryY=0;entryDx=0;entryDy=0;exitX=0.5;exitY=1;exitDx=0;exitDy=0;" edge="1" parent="1" source="YKfZpbxEMDAa817vgpCx-4" target="YKfZpbxEMDAa817vgpCx-6">
          <mxGeometry relative="1" as="geometry" />
        </mxCell>
        <mxCell id="YKfZpbxEMDAa817vgpCx-4" value="&lt;span style=&quot;font-size: 16px&quot;&gt;主机A&lt;/span&gt;" style="rounded=0;whiteSpace=wrap;html=1;fillColor=#cdeb8b;strokeColor=#36393d;" vertex="1" parent="1">
          <mxGeometry x="325" y="130" width="70" height="40" as="geometry" />
        </mxCell>
        <mxCell id="YKfZpbxEMDAa817vgpCx-5" value="" style="rounded=0;whiteSpace=wrap;html=1;" vertex="1" parent="1">
          <mxGeometry x="395" y="130" width="70" height="40" as="geometry" />
        </mxCell>
        <mxCell id="YKfZpbxEMDAa817vgpCx-6" value="主机A" style="rounded=0;whiteSpace=wrap;html=1;fontSize=16;fillColor=#cdeb8b;strokeColor=#E6E6E6;" vertex="1" parent="1">
          <mxGeometry x="205" y="330" width="80" height="40" as="geometry" />
        </mxCell>
        <mxCell id="YKfZpbxEMDAa817vgpCx-7" value="&lt;span style=&quot;font-size: 16px;&quot;&gt;主机B&lt;/span&gt;" style="rounded=0;whiteSpace=wrap;html=1;fontSize=16;fillColor=#ffcccc;strokeColor=#E6E6E6;" vertex="1" parent="1">
          <mxGeometry x="285" y="330" width="80" height="40" as="geometry" />
        </mxCell>
        <mxCell id="YKfZpbxEMDAa817vgpCx-8" value="&lt;span style=&quot;font-size: 16px;&quot;&gt;主机C&lt;/span&gt;" style="rounded=0;whiteSpace=wrap;html=1;fontSize=16;fillColor=#ffcc99;strokeColor=#E6E6E6;" vertex="1" parent="1">
          <mxGeometry x="365" y="330" width="80" height="40" as="geometry" />
        </mxCell>
        <mxCell id="YKfZpbxEMDAa817vgpCx-9" value="&lt;span style=&quot;font-size: 16px;&quot;&gt;主机D&lt;/span&gt;" style="rounded=0;whiteSpace=wrap;html=1;fontSize=16;fillColor=#cce5ff;strokeColor=#E6E6E6;" vertex="1" parent="1">
          <mxGeometry x="445" y="330" width="80" height="40" as="geometry" />
        </mxCell>
        <mxCell id="YKfZpbxEMDAa817vgpCx-10" value="" style="shape=flexArrow;endArrow=classic;html=1;fontSize=16;fillColor=#fff2cc;strokeColor=none;" edge="1" parent="1">
          <mxGeometry width="50" height="50" relative="1" as="geometry">
            <mxPoint x="65" y="349.5" as="sourcePoint" />
            <mxPoint x="175" y="350" as="targetPoint" />
          </mxGeometry>
        </mxCell>
        <mxCell id="YKfZpbxEMDAa817vgpCx-11" value="心跳包" style="text;html=1;align=center;verticalAlign=middle;resizable=0;points=[];autosize=1;fontSize=16;fillColor=#fff2cc;" vertex="1" parent="1">
          <mxGeometry x="80" y="320" width="60" height="20" as="geometry" />
        </mxCell>
        <mxCell id="YKfZpbxEMDAa817vgpCx-12" value="队头" style="text;html=1;align=center;verticalAlign=middle;resizable=0;points=[];autosize=1;strokeColor=none;fontSize=16;" vertex="1" parent="1">
          <mxGeometry x="460" y="420" width="50" height="20" as="geometry" />
        </mxCell>
        <mxCell id="YKfZpbxEMDAa817vgpCx-13" value="队尾" style="text;html=1;align=center;verticalAlign=middle;resizable=0;points=[];autosize=1;strokeColor=none;fontSize=16;" vertex="1" parent="1">
          <mxGeometry x="220" y="420" width="50" height="20" as="geometry" />
        </mxCell>
        <mxCell id="YKfZpbxEMDAa817vgpCx-14" value="" style="endArrow=classic;html=1;fontSize=16;entryX=0.5;entryY=1;entryDx=0;entryDy=0;" edge="1" parent="1" target="YKfZpbxEMDAa817vgpCx-6">
          <mxGeometry width="50" height="50" relative="1" as="geometry">
            <mxPoint x="245" y="410" as="sourcePoint" />
            <mxPoint x="265" y="370" as="targetPoint" />
          </mxGeometry>
        </mxCell>
        <mxCell id="YKfZpbxEMDAa817vgpCx-15" value="" style="endArrow=classic;html=1;fontSize=16;entryX=0.5;entryY=1;entryDx=0;entryDy=0;" edge="1" parent="1" target="YKfZpbxEMDAa817vgpCx-9">
          <mxGeometry width="50" height="50" relative="1" as="geometry">
            <mxPoint x="485" y="410" as="sourcePoint" />
            <mxPoint x="430" y="380" as="targetPoint" />
          </mxGeometry>
        </mxCell>
        <mxCell id="YKfZpbxEMDAa817vgpCx-20" style="edgeStyle=none;rounded=0;orthogonalLoop=1;jettySize=auto;html=1;entryX=0.5;entryY=0;entryDx=0;entryDy=0;" edge="1" parent="1" source="YKfZpbxEMDAa817vgpCx-16" target="YKfZpbxEMDAa817vgpCx-8">
          <mxGeometry relative="1" as="geometry">
            <mxPoint x="550" y="220" as="targetPoint" />
          </mxGeometry>
        </mxCell>
        <mxCell id="YKfZpbxEMDAa817vgpCx-16" value="&lt;span style=&quot;font-size: 16px&quot;&gt;主机C&lt;/span&gt;" style="rounded=0;whiteSpace=wrap;html=1;fillColor=#ffcc99;strokeColor=#36393d;" vertex="1" parent="1">
          <mxGeometry x="465" y="130" width="70" height="40" as="geometry" />
        </mxCell>
        <mxCell id="YKfZpbxEMDAa817vgpCx-17" value="" style="endArrow=classic;html=1;exitX=0.5;exitY=1;exitDx=0;exitDy=0;entryX=0.5;entryY=0;entryDx=0;entryDy=0;" edge="1" parent="1" source="YKfZpbxEMDAa817vgpCx-2" target="YKfZpbxEMDAa817vgpCx-7">
          <mxGeometry width="50" height="50" relative="1" as="geometry">
            <mxPoint x="250" y="280" as="sourcePoint" />
            <mxPoint x="300" y="230" as="targetPoint" />
          </mxGeometry>
        </mxCell>
        <mxCell id="YKfZpbxEMDAa817vgpCx-21" value="" style="shape=curlyBracket;whiteSpace=wrap;html=1;rounded=1;rotation=90;" vertex="1" parent="1">
          <mxGeometry x="315" y="-100" width="20" height="420" as="geometry" />
        </mxCell>
        <mxCell id="YKfZpbxEMDAa817vgpCx-22" value="哈希表&lt;br style=&quot;font-size: 16px;&quot;&gt;key 为主机 IP&lt;br style=&quot;font-size: 16px;&quot;&gt;Value 为主机在双向链表里的节点" style="text;html=1;align=center;verticalAlign=middle;resizable=0;points=[];autosize=1;strokeColor=none;fontSize=16;" vertex="1" parent="1">
          <mxGeometry x="205" y="30" width="250" height="60" as="geometry" />
        </mxCell>
      </root>
    </mxGraphModel>
  </diagram>
</mxfile>
